<?xml version="1.0"?>
<svg xmlns:rdf="http://www.w3.org/1999/02/22-rdf-syntax-ns#" xmlns="http://www.w3.org/2000/svg" xmlns:cc="http://creativecommons.org/ns#" xmlns:xlink="http://www.w3.org/1999/xlink" xmlns:dc="http://purl.org/dc/elements/1.1/" id="svg2985" viewBox="0 0 640 480" version="1.1">
 <defs id="defs2987">
  <linearGradient id="linearGradient4462">
   <stop id="stop4464" stop-color="#ccc" offset="0"/>
   <stop id="stop4466" stop-color="#ccc" stop-opacity="0" offset="1"/>
  </linearGradient>
  <linearGradient id="linearGradient4400">
   <stop id="stop4402" offset="0"/>
   <stop id="stop4404" stop-opacity="0" offset="1"/>
  </linearGradient>
  <filter id="filter3917-9" color-interpolation-filters="sRGB">
   <feGaussianBlur id="feGaussianBlur3919-4" stdDeviation="1.0695461"/>
  </filter>
  <filter id="filter4011-4" color-interpolation-filters="sRGB">
   <feGaussianBlur id="feGaussianBlur4013-4" stdDeviation="0.79168722"/>
  </filter>
  <linearGradient id="linearGradient3969-7">
   <stop id="stop3971-8" stop-color="#ececec" offset="0"/>
   <stop id="stop3973-7" stop-color="#ececec" stop-opacity="0" offset="1"/>
  </linearGradient>
  <filter id="filter4043-8" width="1.0617" y="-.10779" x="-.030874" height="1.2156" color-interpolation-filters="sRGB">
   <feGaussianBlur id="feGaussianBlur4045-3" stdDeviation="0.58414065"/>
  </filter>
  <radialGradient id="radialGradient3957-9" xlink:href="#linearGradient4400" gradientUnits="userSpaceOnUse" cy="71.771" cx="1598.4" gradientTransform="matrix(.010102 .62626 -.26764 .0043172 1601.5 -903.76)" r="22.59"/>
  <linearGradient id="linearGradient3959-5">
   <stop id="stop3961-9" stop-color="#fff" offset="0"/>
   <stop id="stop3963-2" stop-color="#fff" stop-opacity="0" offset="1"/>
  </linearGradient>
  <radialGradient id="radialGradient4406" xlink:href="#linearGradient4400" gradientUnits="userSpaceOnUse" cy="338.18" cx="610.54" gradientTransform="matrix(-.90051 .017542 -.014150 -.72651 1165.1 557.51)" r="220.74"/>
  <filter id="filter4676">
   <feGaussianBlur id="feGaussianBlur4678" stdDeviation="7.036112"/>
  </filter>
  <linearGradient id="linearGradient4680" y2="326.4" gradientUnits="userSpaceOnUse" x2="411.76" y1="331.56" x1="43.887">
   <stop id="stop3828" stop-color="#520" offset="0"/>
   <stop id="stop3830" stop-color="#520" stop-opacity="0" offset="1"/>
  </linearGradient>
  <linearGradient id="linearGradient4684" y2="233.57" gradientUnits="userSpaceOnUse" x2="103.14" y1="233.57" x1="26.469">
   <stop id="stop3766" stop-color="#ccc" offset="0"/>
   <stop id="stop3768" stop-color="#ccc" stop-opacity="0" offset="1"/>
  </linearGradient>
  <linearGradient id="linearGradient4686" y2="186.72" gradientUnits="userSpaceOnUse" x2="566.77" y1="186.72" x1="112.3">
   <stop id="stop3879" stop-color="#502d16" offset="0"/>
   <stop id="stop3881" stop-color="#502d16" stop-opacity="0" offset="1"/>
  </linearGradient>
  <radialGradient id="radialGradient4688" gradientUnits="userSpaceOnUse" cy="93.965" cx="317.9" gradientTransform="matrix(1 0 0 .060965 0 88.236)" r="231.55">
   <stop id="stop3859" stop-color="#502d16" offset="0"/>
   <stop id="stop3861" stop-color="#502d16" stop-opacity="0" offset="1"/>
  </radialGradient>
  <radialGradient id="radialGradient4690" xlink:href="#linearGradient3969-7" gradientUnits="userSpaceOnUse" cy="145.83" cx="1602.5" gradientTransform="matrix(.74118 0 0 .75234 414.54 35.538)" r="19.395"/>
  <radialGradient id="radialGradient4694" xlink:href="#linearGradient3959-5" gradientUnits="userSpaceOnUse" cy="122.78" cx="1601.1" gradientTransform="matrix(1 0 0 .28354 -2.0536 71.542)" r="23.09"/>
  <radialGradient id="radialGradient4706" xlink:href="#linearGradient4400" gradientUnits="userSpaceOnUse" cy="-15.424" cx="463.44" gradientTransform="matrix(.31629 -.69010 .41823 .19169 367.57 241.46)" r="71.42"/>
  <radialGradient id="radialGradient4708" xlink:href="#linearGradient4400" gradientUnits="userSpaceOnUse" cy="-128.25" cx="469.8" gradientTransform="matrix(.31629 -.69010 .41823 .19169 367.57 241.46)" r="71.42"/>
  <linearGradient id="linearGradient4714" y2="97.929" xlink:href="#linearGradient4462" gradientUnits="userSpaceOnUse" x2="290.1" gradientTransform="matrix(.32903 0 0 .38128 133.45 54.683)" y1="-20.823" x1="131.98"/>
  <linearGradient id="linearGradient4716" y2="97.929" xlink:href="#linearGradient4462" gradientUnits="userSpaceOnUse" x2="290.1" gradientTransform="matrix(.32903 0 0 .60225 121.55 34.788)" y1="-20.823" x1="131.98"/>
  <linearGradient id="linearGradient4718" y2="97.929" xlink:href="#linearGradient4462" gradientUnits="userSpaceOnUse" x2="290.1" y1="-20.823" x1="131.98"/>
 </defs>
 <g id="layer1">
  <g id="g3194">
   <g id="g4538" filter="url(#filter4676)">
    <path id="path4540" d="m73.018 89.356c5.932-16.421 311.54-4.868 467.31-7.302 47.955 37.048 33.81 96.974 39.247 149.69-2.2129 7.9102-6.4215 12.594-16.429 23.731l2.7382 140.56c-1.1157 13.975-15.468 22.655-28.294 31.945l-397.95 24.64c-20.96-3.42-23.69-14.13-33.77-21.91-23.258 2-33.072-13.92-41.99-31.03l-1.825-289.33z"/>
    <path id="path4542" d="m95.518 97.284c-9.294 0.559-18.356 1.581-22.589 12.266l-1.9362 289.78c10.054 13.994 20.961 27.028 44.532 25.816l-4.51-327.87z"/>
    <path id="path4544" d="m104.55 120.52 2.5816 294.3c1.9453 21.848 11.548 37.84 42.596 37.433l384.65-23.24c18.761-10.338 31.728-21.729 31.624-35.496l-7.0993-272.35z"/>
    <path id="path4546" d="m114.86 120.5 2.4699 284.6c1.8612 21.128 11.048 36.593 40.752 36.199l368.01-22.468c17.949-9.997 30.355-21.013 30.256-34.327l-6.7921-263.38z" stroke="url(#radialGradient4406)" stroke-width=".1"/>
    <path id="path4548" d="m95.518 97.284c-9.294 0.559-18.356 1.581-22.589 12.266l-1.9362 289.78c10.054 13.994 20.961 27.028 44.532 25.816l-4.51-327.87z"/>
    <path id="path4550" d="m63.248 114.71c11.193-18.478 40.012-29.865 37.432 0.64l6.4539 109.72c2.3171 34.165 18.726 42.965 38.078 46.468l407.89-14.199c12.833-7.3572 24.22-15.541 25.17-29.688 0.72618-39.392-0.4304-78.246-11.617-114.23-2.4739-11.635-14.5-21.678-27.106-31.624-154.46 1.2908-308.93-7.0446-463.39 3.8723-5.8673 8.7421-15.01 15.519-12.908 29.043z"/>
    <path id="path4552" d="m112.3 112.13h442.09c13.097 36.572 12.585 73.144 12.262 109.72-4.0138 12.131-7.7375 24.396-33.56 26.461l-375.62 12.908c-27.101 1.7153-34.291-18.012-39.369-40.014z"/>
    <path id="path4554" d="m249.94 79.969c-54.525 0.19017-109.3-1.754-163.59 5 19.492 6.1242 25.708 13.444 25.707 23.113l435.56-3.2c5.8172-4.2822-3.2671-13.545-13.156-23.062-94.851 0.66548-189.68-2.1746-284.53-1.8438z"/>
    <g id="g4556" transform="translate(-1364.2 155.98)">
     <g id="g4558" transform="translate(3.1945 9.8117)">
      <path id="path4560" filter="url(#filter3917-9)" d="m1568.5 72.927 8.6709 20.993 38.79-1.3691 7.3018-20.08c-15.959-11.899-33.94-13.184-54.763 0.45636z"/>
      <g id="g4562" transform="translate(-.45636 -.45636)">
       <path id="path4564" d="m1570.6 72.014 8.6709 20.993 38.79-1.3691 7.3018-20.08c-15.959-11.899-33.94-13.184-54.763 0.45636z"/>
      </g>
     </g>
     <g id="g4566" transform="translate(-2.7382 -16.201)">
      <g id="g4568" filter="url(#filter4011-4)">
       <path id="path4570" d="m1583.1 126.09 1.369 28.751c10.702 10.809 21.756 18.688 36.052-0.45636l1.369-28.751z"/>
       <path id="path4572" d="m1587.9 130.99 1.0147 20.78c7.9321 7.8122 16.125 13.507 26.721-0.32984l1.0147-20.78z"/>
      </g>
      <g id="g4574" transform="translate(1.1409 -.91272)">
       <path id="path4576" d="m1583.1 126.09 1.369 28.751c10.702 10.809 21.756 18.688 36.052-0.45636l1.369-28.751z"/>
       <path id="path4578" d="m1587.9 130.99 1.0147 20.78c7.9321 7.8122 16.125 13.507 26.721-0.32984l1.0147-20.78z"/>
      </g>
     </g>
     <g id="g4580">
      <g id="g4582" filter="url(#filter4043-8)">
       <path id="path4584" d="m1576.7 99.852 45.18-0.45636-0.4564 11.865-44.267 0.22818z"/>
       <path id="path4586" d="m1576.5 100.77 45.18-0.45636-0.4564 11.865-44.267 0.22818z" stroke="url(#radialGradient3957-9)"/>
      </g>
      <g id="g4588" transform="translate(1.1409 -.68454)">
       <path id="path4590" d="m1576.7 99.852 45.18-0.45636-0.4564 11.865-44.267 0.22818z"/>
       <path id="path4592" d="m1576.5 100.77 45.18-0.45636-0.4564 11.865-44.267 0.22818z" stroke="url(#radialGradient3957-9)"/>
      </g>
     </g>
    </g>
    <g id="g4594" transform="translate(-1164.1 149.53)">
     <g id="g4596" transform="translate(3.1945 9.8117)">
      <path id="path4598" d="m1568.5 72.927 8.6709 20.993 38.79-1.3691 7.3018-20.08c-15.959-11.899-33.94-13.184-54.763 0.45636z" filter="url(#filter3917-9)"/>
      <g id="g4600" transform="translate(-.45636 -.45636)">
       <path id="path4602" d="m1570.6 72.014 8.6709 20.993 38.79-1.3691 7.3018-20.08c-15.959-11.899-33.94-13.184-54.763 0.45636z"/>
      </g>
     </g>
     <g id="g4604" transform="translate(-2.7382 -16.201)">
      <g id="g4606" filter="url(#filter4011-4)">
       <path id="path4608" d="m1583.1 126.09 1.369 28.751c10.702 10.809 21.756 18.688 36.052-0.45636l1.369-28.751z"/>
       <path id="path4610" d="m1587.9 130.99 1.0147 20.78c7.9321 7.8122 16.125 13.507 26.721-0.32984l1.0147-20.78z"/>
      </g>
      <g id="g4612" transform="translate(1.1409 -.91272)">
       <path id="path4614" d="m1583.1 126.09 1.369 28.751c10.702 10.809 21.756 18.688 36.052-0.45636l1.369-28.751z"/>
       <path id="path4616" d="m1587.9 130.99 1.0147 20.78c7.9321 7.8122 16.125 13.507 26.721-0.32984l1.0147-20.78z"/>
      </g>
     </g>
     <g id="g4618">
      <g id="g4620" filter="url(#filter4043-8)">
       <path id="path4622" d="m1576.7 99.852 45.18-0.45636-0.4564 11.865-44.267 0.22818z"/>
       <path id="path4624" d="m1576.5 100.77 45.18-0.45636-0.4564 11.865-44.267 0.22818z" stroke="url(#radialGradient3957-9)"/>
      </g>
      <g id="g4626" transform="translate(1.1409 -.68454)">
       <path id="path4628" d="m1576.7 99.852 45.18-0.45636-0.4564 11.865-44.267 0.22818z"/>
       <path id="path4630" d="m1576.5 100.77 45.18-0.45636-0.4564 11.865-44.267 0.22818z" stroke="url(#radialGradient3957-9)"/>
      </g>
     </g>
    </g>
    <g id="g4632" transform="translate(-129.61 184.37)">
     <g id="g4634">
      <path id="path4636" d="m637.53-74.021c0 2.0163-1.7367 3.6509-3.879 3.6509-2.1424 0-3.8791-1.6346-3.8791-3.6509s1.7367-3.6509 3.8791-3.6509c2.1423 0 3.879 1.6346 3.879 3.6509z" transform="matrix(1.4878 0 0 1 -383.88 -20.08)"/>
      <path id="path4638" d="m637.53-74.021c0 2.0163-1.7367 3.6509-3.879 3.6509-2.1424 0-3.8791-1.6346-3.8791-3.6509s1.7367-3.6509 3.8791-3.6509c2.1423 0 3.879 1.6346 3.879 3.6509z" transform="matrix(1.4878 0 0 1 -367.58 -20.536)"/>
      <path id="path4640" d="m585.51-87.255l-53.394 0.91272c-5.7806-0.46653-12.667-3.4545-13.399-9.9179-1.0099-7.6467-2.0199-15.293-3.0298-22.94-19.455-10.787-42.166-12.696-63.891-14.831-2.5096-1.1036-8.6583 1.2616-8.2636-2.5712-0.13559-5.1518-0.27117-10.304-0.40676-15.456 24.483 3.1764 49.314 6.5239 72.474 15.478 6.9468 2.9814 14.422 6.3618 19.283 12.217 0.75127 8.4143 1.5026 16.829 2.2538 25.243 3.0093 1.6228 5.9054 3.6575 8.9852 5.0235 13.282 0.15093 26.564 0.30186 39.845 0.45279-0.15213 2.1297-0.30427 4.2594-0.4564 6.389z"/>
      <path id="path4642" d="m585.51-87.255l-53.394 0.91272c-5.7806-0.46653-12.667-3.4545-13.399-9.9179-1.0099-7.6467-2.0199-15.293-3.0298-22.94-19.455-10.787-42.166-12.696-63.891-14.831-2.5096-1.1036-8.6583 1.2616-8.2636-2.5712-0.13559-5.1518-0.27117-10.304-0.40676-15.456 24.483 3.1764 49.314 6.5239 72.474 15.478 6.9468 2.9814 14.422 6.3618 19.283 12.217 0.75127 8.4143 1.5026 16.829 2.2538 25.243 3.0093 1.6228 5.9054 3.6575 8.9852 5.0235 13.282 0.15093 26.564 0.30186 39.845 0.45279-0.15213 2.1297-0.30427 4.2594-0.4564 6.389z"/>
      <path id="path4644" d="m585.51-87.255l-53.394 0.91272c-5.7806-0.46653-12.667-3.4545-13.399-9.9179-1.0099-7.6467-2.0199-15.293-3.0298-22.94-19.455-10.787-42.166-12.696-63.891-14.831-2.5096-1.1036-8.6583 1.2616-8.2636-2.5712-0.13559-5.1518-0.27117-10.304-0.40676-15.456 24.483 3.1764 49.314 6.5239 72.474 15.478 6.9468 2.9814 14.422 6.3618 19.283 12.217 0.75127 8.4143 1.5026 16.829 2.2538 25.243 3.0093 1.6228 5.9054 3.6575 8.9852 5.0235 13.282 0.15093 26.564 0.30186 39.845 0.45279-0.15213 2.1297-0.30427 4.2594-0.4564 6.389z"/>
     </g>
     <g id="g4646" transform="matrix(-1 0 0 1 888.99 0)">
      <path id="path4648" d="m637.53-74.021c0 2.0163-1.7367 3.6509-3.879 3.6509-2.1424 0-3.8791-1.6346-3.8791-3.6509s1.7367-3.6509 3.8791-3.6509c2.1423 0 3.879 1.6346 3.879 3.6509z" transform="matrix(1.4878 0 0 1 -383.88 -20.08)"/>
      <path id="path4650" d="m637.53-74.021c0 2.0163-1.7367 3.6509-3.879 3.6509-2.1424 0-3.8791-1.6346-3.8791-3.6509s1.7367-3.6509 3.8791-3.6509c2.1423 0 3.879 1.6346 3.879 3.6509z" transform="matrix(1.4878 0 0 1 -367.58 -20.536)"/>
      <path id="path4652" d="m585.51-87.255l-53.394 0.91272c-5.7806-0.46653-12.667-3.4545-13.399-9.9179-1.0099-7.6467-2.0199-15.293-3.0298-22.94-19.455-10.787-42.166-12.696-63.891-14.831-2.5096-1.1036-8.6583 1.2616-8.2636-2.5712-0.13559-5.1518-0.27117-10.304-0.40676-15.456 24.483 3.1764 49.314 6.5239 72.474 15.478 6.9468 2.9814 14.422 6.3618 19.283 12.217 0.75127 8.4143 1.5026 16.829 2.2538 25.243 3.0093 1.6228 5.9054 3.6575 8.9852 5.0235 13.282 0.15093 26.564 0.30186 39.845 0.45279-0.15213 2.1297-0.30427 4.2594-0.4564 6.389z"/>
      <path id="path4654" d="m585.51-87.255l-53.394 0.91272c-5.7806-0.46653-12.667-3.4545-13.399-9.9179-1.0099-7.6467-2.0199-15.293-3.0298-22.94-19.455-10.787-42.166-12.696-63.891-14.831-2.5096-1.1036-8.6583 1.2616-8.2636-2.5712-0.13559-5.1518-0.27117-10.304-0.40676-15.456 24.483 3.1764 49.314 6.5239 72.474 15.478 6.9468 2.9814 14.422 6.3618 19.283 12.217 0.75127 8.4143 1.5026 16.829 2.2538 25.243 3.0093 1.6228 5.9054 3.6575 8.9852 5.0235 13.282 0.15093 26.564 0.30186 39.845 0.45279-0.15213 2.1297-0.30427 4.2594-0.4564 6.389z"/>
      <path id="path4656" d="m585.51-87.255l-53.394 0.91272c-5.7806-0.46653-12.667-3.4545-13.399-9.9179-1.0099-7.6467-2.0199-15.293-3.0298-22.94-19.455-10.787-42.166-12.696-63.891-14.831-2.5096-1.1036-8.6583 1.2616-8.2636-2.5712-0.13559-5.1518-0.27117-10.304-0.40676-15.456 24.483 3.1764 49.314 6.5239 72.474 15.478 6.9468 2.9814 14.422 6.3618 19.283 12.217 0.75127 8.4143 1.5026 16.829 2.2538 25.243 3.0093 1.6228 5.9054 3.6575 8.9852 5.0235 13.282 0.15093 26.564 0.30186 39.845 0.45279-0.15213 2.1297-0.30427 4.2594-0.4564 6.389z"/>
     </g>
    </g>
    <path id="path4658" d="m197.31 88.978c0 0.76879 0.85018 1.392 1.8989 1.392 1.0488 0 1.8989-0.62322 1.8989-1.392 0-0.76879-0.85019-1.392-1.8989-1.392-1.0488 0-1.8989 0.62322-1.8989 1.392z"/>
    <path id="path4660" d="m180.05 88.683c0 1.2143 0.85018 2.1988 1.8989 2.1988 1.0488 0 1.8989-0.98442 1.8989-2.1988 0-1.2143-0.85018-2.1988-1.8989-2.1988-1.0488 0-1.8989 0.98441-1.8989 2.1988z"/>
    <path id="path4662" d="m315.61 31.982c-24.483 3.1764-49.309 6.5152-72.469 15.469-6.9468 2.9814-14.421 6.3633-19.281 12.219l-2.25 25.25c-3.0093 1.6228-5.9202 3.6652-9 5.0312l-11.688 0.125c1.5091 0.21492 2.8627 1.2697 4 3.3438l12.562-0.34375 11.625-8.0625 1.2812-24.188c33.632-14.609 60.491-19.321 85-20.625 47.17 0.35894 14.648-4.5251 0.21875-8.2188zm-116.06 58.125-14.375 0.15625c1.4552 0.62668 2.852 1.9002 4.25 3.1562l4.8438-0.34375c1.8966-1.6713 3.6659-2.7041 5.2812-2.9688zm-17.875 0.1875-8.9062 0.09375 0.21875 3.1875 5.4688-0.15625c1.1269-1.653 2.1966-2.6243 3.2188-3.125z"/>
   </g>
   <g id="g4474" transform="translate(-3.6509 -5.4763)">
    <path id="path3004" fill="#2b1100" d="m73.018 89.356c5.932-16.421 311.54-4.868 467.31-7.302 47.955 37.048 33.81 96.974 39.247 149.69-2.2129 7.9102-6.4215 12.594-16.429 23.731l2.7382 140.56c-1.1157 13.975-15.468 22.655-28.294 31.945l-397.95 24.64c-20.96-3.42-23.69-14.13-33.77-21.91-23.258 2-33.072-13.92-41.99-31.03l-1.825-289.33z"/>
    <path id="path2984" fill="#520" d="m95.518 97.284c-9.294 0.559-18.356 1.581-22.589 12.266l-1.9362 289.78c10.054 13.994 20.961 27.028 44.532 25.816l-4.51-327.87z"/>
    <path id="path2990" fill="#2b1100" d="m104.55 120.52 2.5816 294.3c1.9453 21.848 11.548 37.84 42.596 37.433l384.65-23.24c18.761-10.338 31.728-21.729 31.624-35.496l-7.0993-272.35z"/>
    <path id="path2992" d="m114.86 120.5 2.4699 284.6c1.8612 21.128 11.048 36.593 40.752 36.199l368.01-22.468c17.949-9.997 30.355-21.013 30.256-34.327l-6.7921-263.38z" stroke="url(#radialGradient4406)" stroke-width=".1" fill="url(#linearGradient4680)"/>
    <path id="path3762" d="m95.518 97.284c-9.294 0.559-18.356 1.581-22.589 12.266l-1.9362 289.78c10.054 13.994 20.961 27.028 44.532 25.816l-4.51-327.87z" fill="url(#linearGradient4684)"/>
    <path id="path2986" fill="#2b1100" d="m63.248 114.71c11.193-18.478 40.012-29.865 37.432 0.64l6.4539 109.72c2.3171 34.165 18.726 42.965 38.078 46.468l407.89-14.199c12.833-7.3572 24.22-15.541 25.17-29.688 0.72618-39.392-0.4304-78.246-11.617-114.23-2.4739-11.635-14.5-21.678-27.106-31.624-154.46 1.2908-308.93-7.0446-463.39 3.8723-5.8673 8.7421-15.01 15.519-12.908 29.043z"/>
    <path id="path2988" d="m112.3 112.13h442.09c13.097 36.572 12.585 73.144 12.262 109.72-4.0138 12.131-7.7375 24.396-33.56 26.461l-375.62 12.908c-27.101 1.7153-34.291-18.012-39.369-40.014z" fill="url(#linearGradient4686)"/>
    <path id="path3834" d="m249.94 79.969c-54.525 0.19017-109.3-1.754-163.59 5 19.492 6.1242 25.708 13.444 25.707 23.113l435.56-3.2c5.8172-4.2822-3.2671-13.545-13.156-23.062-94.851 0.66548-189.68-2.1746-284.53-1.8438z" fill="url(#radialGradient4688)"/>
    <g id="g4077" transform="translate(-1364.2 155.98)">
     <g id="g4072" transform="translate(3.1945 9.8117)">
      <path id="path3891" d="m1568.5 72.927 8.6709 20.993 38.79-1.3691 7.3018-20.08c-15.959-11.899-33.94-13.184-54.763 0.45636z" filter="url(#filter3917-9)"/>
      <g id="g4059" transform="translate(-.45636 -.45636)">
       <path id="path3885" d="m1570.6 72.014 8.6709 20.993 38.79-1.3691 7.3018-20.08c-15.959-11.899-33.94-13.184-54.763 0.45636z" fill="#28170b"/>
      </g>
     </g>
     <g id="g4062" transform="translate(-2.7382 -16.201)">
      <g id="g3981" filter="url(#filter4011-4)">
       <path id="path3983" d="m1583.1 126.09 1.369 28.751c10.702 10.809 21.756 18.688 36.052-0.45636l1.369-28.751z"/>
       <path id="path3985" d="m1587.9 130.99 1.0147 20.78c7.9321 7.8122 16.125 13.507 26.721-0.32984l1.0147-20.78z"/>
      </g>
      <g id="g3977" transform="translate(1.1409 -.91272)">
       <path id="path3887" d="m1583.1 126.09 1.369 28.751c10.702 10.809 21.756 18.688 36.052-0.45636l1.369-28.751z" fill="#999"/>
       <path id="path3967" d="m1587.9 130.99 1.0147 20.78c7.9321 7.8122 16.125 13.507 26.721-0.32984l1.0147-20.78z" fill="url(#radialGradient4690)"/>
      </g>
     </g>
     <g id="g4051">
      <g id="g4021" filter="url(#filter4043-8)">
       <path id="path4023" d="m1576.7 99.852 45.18-0.45636-0.4564 11.865-44.267 0.22818z"/>
       <path id="path4025" d="m1576.5 100.77 45.18-0.45636-0.4564 11.865-44.267 0.22818z" stroke="url(#radialGradient3957-9)"/>
      </g>
      <g id="g4017" transform="translate(1.1409 -.68454)">
       <path id="path3889" d="m1576.7 99.852 45.18-0.45636-0.4564 11.865-44.267 0.22818z" fill="#4d4d4d"/>
       <path id="path3949" d="m1576.5 100.77 45.18-0.45636-0.4564 11.865-44.267 0.22818z" stroke="url(#radialGradient3957-9)" fill="url(#radialGradient4694)"/>
      </g>
     </g>
    </g>
    <g id="g4238" transform="translate(-1164.1 149.53)">
     <g id="g4240" transform="translate(3.1945 9.8117)">
      <path id="path4242" filter="url(#filter3917-9)" d="m1568.5 72.927 8.6709 20.993 38.79-1.3691 7.3018-20.08c-15.959-11.899-33.94-13.184-54.763 0.45636z"/>
      <g id="g4244" transform="translate(-.45636 -.45636)">
       <path id="path4246" fill="#28170b" d="m1570.6 72.014 8.6709 20.993 38.79-1.3691 7.3018-20.08c-15.959-11.899-33.94-13.184-54.763 0.45636z"/>
      </g>
     </g>
     <g id="g4248" transform="translate(-2.7382 -16.201)">
      <g id="g4250" filter="url(#filter4011-4)">
       <path id="path4252" d="m1583.1 126.09 1.369 28.751c10.702 10.809 21.756 18.688 36.052-0.45636l1.369-28.751z"/>
       <path id="path4254" d="m1587.9 130.99 1.0147 20.78c7.9321 7.8122 16.125 13.507 26.721-0.32984l1.0147-20.78z"/>
      </g>
      <g id="g4256" transform="translate(1.1409 -.91272)">
       <path id="path4258" fill="#999" d="m1583.1 126.09 1.369 28.751c10.702 10.809 21.756 18.688 36.052-0.45636l1.369-28.751z"/>
       <path id="path4260" d="m1587.9 130.99 1.0147 20.78c7.9321 7.8122 16.125 13.507 26.721-0.32984l1.0147-20.78z" fill="url(#radialGradient4690)"/>
      </g>
     </g>
     <g id="g4262">
      <g id="g4264" filter="url(#filter4043-8)">
       <path id="path4266" d="m1576.7 99.852 45.18-0.45636-0.4564 11.865-44.267 0.22818z"/>
       <path id="path4268" d="m1576.5 100.77 45.18-0.45636-0.4564 11.865-44.267 0.22818z" stroke="url(#radialGradient3957-9)"/>
      </g>
      <g id="g4270" transform="translate(1.1409 -.68454)">
       <path id="path4272" fill="#4d4d4d" d="m1576.7 99.852 45.18-0.45636-0.4564 11.865-44.267 0.22818z"/>
       <path id="path4274" d="m1576.5 100.77 45.18-0.45636-0.4564 11.865-44.267 0.22818z" stroke="url(#radialGradient3957-9)" fill="url(#radialGradient4694)"/>
      </g>
     </g>
    </g>
    <g id="g4336" transform="translate(-129.61 184.37)">
     <g id="g4313">
      <path id="path4287" d="m637.53-74.021c0 2.0163-1.7367 3.6509-3.879 3.6509-2.1424 0-3.8791-1.6346-3.8791-3.6509s1.7367-3.6509 3.8791-3.6509c2.1423 0 3.879 1.6346 3.879 3.6509z" transform="matrix(1.4878 0 0 1 -383.88 -20.08)"/>
      <path id="path4289" d="m637.53-74.021c0 2.0163-1.7367 3.6509-3.879 3.6509-2.1424 0-3.8791-1.6346-3.8791-3.6509s1.7367-3.6509 3.8791-3.6509c2.1423 0 3.879 1.6346 3.879 3.6509z" transform="matrix(1.4878 0 0 1 -367.58 -20.536)"/>
      <path id="path4284" fill="#2b1100" d="m585.51-87.255l-53.394 0.91272c-5.7806-0.46653-12.667-3.4545-13.399-9.9179-1.0099-7.6467-2.0199-15.293-3.0298-22.94-19.455-10.787-42.166-12.696-63.891-14.831-2.5096-1.1036-8.6583 1.2616-8.2636-2.5712-0.13559-5.1518-0.27117-10.304-0.40676-15.456 24.483 3.1764 49.314 6.5239 72.474 15.478 6.9468 2.9814 14.422 6.3618 19.283 12.217 0.75127 8.4143 1.5026 16.829 2.2538 25.243 3.0093 1.6228 5.9054 3.6575 8.9852 5.0235 13.282 0.15093 26.564 0.30186 39.845 0.45279-0.15213 2.1297-0.30427 4.2594-0.4564 6.389z"/>
      <path id="path4291" d="m585.51-87.255l-53.394 0.91272c-5.7806-0.46653-12.667-3.4545-13.399-9.9179-1.0099-7.6467-2.0199-15.293-3.0298-22.94-19.455-10.787-42.166-12.696-63.891-14.831-2.5096-1.1036-8.6583 1.2616-8.2636-2.5712-0.13559-5.1518-0.27117-10.304-0.40676-15.456 24.483 3.1764 49.314 6.5239 72.474 15.478 6.9468 2.9814 14.422 6.3618 19.283 12.217 0.75127 8.4143 1.5026 16.829 2.2538 25.243 3.0093 1.6228 5.9054 3.6575 8.9852 5.0235 13.282 0.15093 26.564 0.30186 39.845 0.45279-0.15213 2.1297-0.30427 4.2594-0.4564 6.389z" fill="url(#radialGradient4706)"/>
      <path id="path4309" fill="url(#radialGradient4708)" d="m585.51-87.255l-53.394 0.91272c-5.7806-0.46653-12.667-3.4545-13.399-9.9179-1.0099-7.6467-2.0199-15.293-3.0298-22.94-19.455-10.787-42.166-12.696-63.891-14.831-2.5096-1.1036-8.6583 1.2616-8.2636-2.5712-0.13559-5.1518-0.27117-10.304-0.40676-15.456 24.483 3.1764 49.314 6.5239 72.474 15.478 6.9468 2.9814 14.422 6.3618 19.283 12.217 0.75127 8.4143 1.5026 16.829 2.2538 25.243 3.0093 1.6228 5.9054 3.6575 8.9852 5.0235 13.282 0.15093 26.564 0.30186 39.845 0.45279-0.15213 2.1297-0.30427 4.2594-0.4564 6.389z"/>
     </g>
     <g id="g4320" transform="matrix(-1 0 0 1 888.99 0)">
      <path id="path4322" d="m637.53-74.021c0 2.0163-1.7367 3.6509-3.879 3.6509-2.1424 0-3.8791-1.6346-3.8791-3.6509s1.7367-3.6509 3.8791-3.6509c2.1423 0 3.879 1.6346 3.879 3.6509z" transform="matrix(1.4878 0 0 1 -383.88 -20.08)"/>
      <path id="path4324" d="m637.53-74.021c0 2.0163-1.7367 3.6509-3.879 3.6509-2.1424 0-3.8791-1.6346-3.8791-3.6509s1.7367-3.6509 3.8791-3.6509c2.1423 0 3.879 1.6346 3.879 3.6509z" transform="matrix(1.4878 0 0 1 -367.58 -20.536)"/>
      <path id="path4326" d="m585.51-87.255l-53.394 0.91272c-5.7806-0.46653-12.667-3.4545-13.399-9.9179-1.0099-7.6467-2.0199-15.293-3.0298-22.94-19.455-10.787-42.166-12.696-63.891-14.831-2.5096-1.1036-8.6583 1.2616-8.2636-2.5712-0.13559-5.1518-0.27117-10.304-0.40676-15.456 24.483 3.1764 49.314 6.5239 72.474 15.478 6.9468 2.9814 14.422 6.3618 19.283 12.217 0.75127 8.4143 1.5026 16.829 2.2538 25.243 3.0093 1.6228 5.9054 3.6575 8.9852 5.0235 13.282 0.15093 26.564 0.30186 39.845 0.45279-0.15213 2.1297-0.30427 4.2594-0.4564 6.389z" fill="#2b1100"/>
      <path id="path4328" fill="url(#radialGradient4706)" d="m585.51-87.255l-53.394 0.91272c-5.7806-0.46653-12.667-3.4545-13.399-9.9179-1.0099-7.6467-2.0199-15.293-3.0298-22.94-19.455-10.787-42.166-12.696-63.891-14.831-2.5096-1.1036-8.6583 1.2616-8.2636-2.5712-0.13559-5.1518-0.27117-10.304-0.40676-15.456 24.483 3.1764 49.314 6.5239 72.474 15.478 6.9468 2.9814 14.422 6.3618 19.283 12.217 0.75127 8.4143 1.5026 16.829 2.2538 25.243 3.0093 1.6228 5.9054 3.6575 8.9852 5.0235 13.282 0.15093 26.564 0.30186 39.845 0.45279-0.15213 2.1297-0.30427 4.2594-0.4564 6.389z"/>
      <path id="path4330" d="m585.51-87.255l-53.394 0.91272c-5.7806-0.46653-12.667-3.4545-13.399-9.9179-1.0099-7.6467-2.0199-15.293-3.0298-22.94-19.455-10.787-42.166-12.696-63.891-14.831-2.5096-1.1036-8.6583 1.2616-8.2636-2.5712-0.13559-5.1518-0.27117-10.304-0.40676-15.456 24.483 3.1764 49.314 6.5239 72.474 15.478 6.9468 2.9814 14.422 6.3618 19.283 12.217 0.75127 8.4143 1.5026 16.829 2.2538 25.243 3.0093 1.6228 5.9054 3.6575 8.9852 5.0235 13.282 0.15093 26.564 0.30186 39.845 0.45279-0.15213 2.1297-0.30427 4.2594-0.4564 6.389z" fill="url(#radialGradient4708)"/>
     </g>
    </g>
    <path id="path4426" fill="url(#linearGradient4714)" d="m197.31 88.978c0 0.76879 0.85018 1.392 1.8989 1.392 1.0488 0 1.8989-0.62322 1.8989-1.392 0-0.76879-0.85019-1.392-1.8989-1.392-1.0488 0-1.8989 0.62322-1.8989 1.392z"/>
    <path id="path4428" fill="url(#linearGradient4716)" d="m180.05 88.683c0 1.2143 0.85018 2.1988 1.8989 2.1988 1.0488 0 1.8989-0.98442 1.8989-2.1988 0-1.2143-0.85018-2.1988-1.8989-2.1988-1.0488 0-1.8989 0.98441-1.8989 2.1988z"/>
    <path id="path4434" d="m315.61 31.982c-24.483 3.1764-49.309 6.5152-72.469 15.469-6.9468 2.9814-14.421 6.3633-19.281 12.219l-2.25 25.25c-3.0093 1.6228-5.9202 3.6652-9 5.0312l-11.688 0.125c1.5091 0.21492 2.8627 1.2697 4 3.3438l12.562-0.34375 11.625-8.0625 1.2812-24.188c33.632-14.609 60.491-19.321 85-20.625 47.17 0.35894 14.648-4.5251 0.21875-8.2188zm-116.06 58.125-14.375 0.15625c1.4552 0.62668 2.852 1.9002 4.25 3.1562l4.8438-0.34375c1.8966-1.6713 3.6659-2.7041 5.2812-2.9688zm-17.875 0.1875-8.9062 0.09375 0.21875 3.1875 5.4688-0.15625c1.1269-1.653 2.1966-2.6243 3.2188-3.125z" fill="url(#linearGradient4718)"/>
   </g>
  </g>
 </g>
 <metadata>
  <rdf:RDF>
   <cc:Work>
    <dc:format>image/svg+xml</dc:format>
    <dc:type rdf:resource="http://purl.org/dc/dcmitype/StillImage"/>
    <cc:license rdf:resource="http://creativecommons.org/licenses/publicdomain/"/>
    <dc:publisher>
     <cc:Agent rdf:about="http://openclipart.org/">
      <dc:title>Openclipart</dc:title>
     </cc:Agent>
    </dc:publisher>
   </cc:Work>
   <cc:License rdf:about="http://creativecommons.org/licenses/publicdomain/">
    <cc:permits rdf:resource="http://creativecommons.org/ns#Reproduction"/>
    <cc:permits rdf:resource="http://creativecommons.org/ns#Distribution"/>
    <cc:permits rdf:resource="http://creativecommons.org/ns#DerivativeWorks"/>
   </cc:License>
  </rdf:RDF>
 </metadata>
</svg>
